<svg width="24" height="24" viewBox="0 0 24 24" fill="none" xmlns="http://www.w3.org/2000/svg">
<mask id="mask0_163250_8065" style="mask-type:alpha" maskUnits="userSpaceOnUse" x="0" y="0" width="24" height="24">
<rect width="24" height="24" fill="#D9D9D9"/>
</mask>
<g mask="url(#mask0_163250_8065)">
<path d="M12.7 10.3L15.3 12.9C15.6167 13.2166 15.6875 13.5791 15.5125 13.9875C15.3375 14.3958 15.025 14.6 14.575 14.6H9.42502C8.97502 14.6 8.66253 14.3958 8.48752 13.9875C8.31252 13.5791 8.38336 13.2166 8.70003 12.9L11.3 10.3C11.4 10.2 11.5084 10.125 11.625 10.075C11.7417 10.025 11.8667 9.99998 12 9.99998C12.1334 9.99998 12.2584 10.025 12.375 10.075C12.4917 10.125 12.6 10.2 12.7 10.3Z" fill="#2A3647"/>
</g>
</svg>
