<svg width="30" height="26" viewBox="0 0 30 26" fill="none" xmlns="http://www.w3.org/2000/svg">
<path d="M22.9544 2.75564L22.9545 23.21C22.9538 23.8125 22.7142 24.3903 22.2881 24.8163C21.862 25.2424 21.2843 25.4821 20.6817 25.4827L16.1363 25.4827C15.5338 25.4821 14.956 25.2424 14.53 24.8163C14.1039 24.3903 13.8642 23.8125 13.8636 23.21L13.8636 2.75564C13.8642 2.15306 14.1039 1.57534 14.53 1.14926C14.956 0.723172 15.5338 0.483533 16.1363 0.48293L20.6817 0.48293C21.2843 0.483533 21.862 0.723172 22.2881 1.14926C22.7142 1.57534 22.9538 2.15306 22.9544 2.75564ZM16.1363 23.21L20.6817 23.21L20.6817 2.75564L16.1363 2.75564L16.1363 23.21ZM16.1363 2.75564L16.1363 23.21C16.1357 23.8125 15.8961 24.3902 15.47 24.8163C15.0439 25.2424 14.4662 25.482 13.8636 25.4826L9.31823 25.4826C8.71566 25.482 8.13794 25.2424 7.71185 24.8163C7.28577 24.3902 7.04613 23.8125 7.04553 23.2099L7.04553 2.75561C7.04613 2.15304 7.28577 1.57532 7.71185 1.14923C8.13793 0.723148 8.71566 0.483513 9.31823 0.48291L13.8636 0.48291C14.4662 0.483512 15.0439 0.723148 15.47 1.14923C15.8961 1.57532 16.1357 2.15306 16.1363 2.75564ZM9.31823 23.2099L13.8636 23.21L13.8636 2.75564L9.31823 2.75561L9.31823 23.2099ZM9.31823 2.75561L9.31823 23.2099C9.31763 23.8125 9.07799 24.3902 8.65191 24.8163C8.22582 25.2424 7.6481 25.482 7.04553 25.4826L2.50012 25.4826C1.89755 25.482 1.31983 25.2424 0.893741 24.8163C0.467657 24.3902 0.228019 23.8125 0.227417 23.2099L0.227416 2.75561C0.228018 2.15304 0.467656 1.57532 0.89374 1.14923C1.31982 0.723148 1.89755 0.483513 2.50012 0.48291L7.04553 0.48291C7.6481 0.483513 8.22582 0.723148 8.6519 1.14923C9.07799 1.57532 9.31763 2.15304 9.31823 2.75561ZM2.50012 23.2099L7.04553 23.2099L7.04553 2.75561L2.50012 2.75561L2.50012 23.2099Z" fill="#CDCDCD"/>
<path d="M29.7726 2.75589L29.7726 23.2102C29.772 23.8128 29.5323 24.3905 29.1062 24.8166C28.6802 25.2427 28.1024 25.4823 27.4999 25.4829L22.9545 25.4829C22.3519 25.4823 21.7742 25.2427 21.3481 24.8166C20.922 24.3905 20.6824 23.8125 20.6817 23.21L20.6817 2.75564C20.6823 2.15306 20.922 1.57559 21.3481 1.14951C21.7742 0.723424 22.3519 0.483787 22.9544 0.483184L27.4999 0.483184C28.1024 0.483786 28.6801 0.723424 29.1062 1.14951C29.5323 1.57559 29.772 2.15331 29.7726 2.75589ZM22.9545 23.21L27.4999 23.2102L27.4999 2.75589L22.9544 2.75564L22.9545 23.21Z" fill="#CDCDCD"/>
</svg>
