<svg width="25" height="25" viewBox="0 0 25 25" fill="none" xmlns="http://www.w3.org/2000/svg">
<mask id="mask0_163375_8061" style="mask-type:alpha" maskUnits="userSpaceOnUse" x="0" y="0" width="25" height="25">
<rect x="0.682129" y="0.896729" width="24" height="24" fill="#D9D9D9"/>
</mask>
<g mask="url(#mask0_163375_8061)">
<path d="M10.2328 16.0467L18.7078 7.57173C18.9078 7.37173 19.1453 7.27173 19.4203 7.27173C19.6953 7.27173 19.9328 7.37173 20.1328 7.57173C20.3328 7.77173 20.4328 8.00923 20.4328 8.28423C20.4328 8.55923 20.3328 8.79673 20.1328 8.99673L10.9328 18.1967C10.7328 18.3967 10.4995 18.4967 10.2328 18.4967C9.96616 18.4967 9.73282 18.3967 9.53282 18.1967L5.23282 13.8967C5.03282 13.6967 4.93699 13.4592 4.94532 13.1842C4.95366 12.9092 5.05782 12.6717 5.25782 12.4717C5.45782 12.2717 5.69532 12.1717 5.97032 12.1717C6.24532 12.1717 6.48282 12.2717 6.68282 12.4717L10.2328 16.0467Z" fill="white"/>
</g>
</svg>
