<svg width="63" height="24" viewBox="0 0 63 24" fill="none" xmlns="http://www.w3.org/2000/svg">
<mask id="mask0_48008_4079" style="mask-type:alpha" maskUnits="userSpaceOnUse" x="0" y="0" width="25" height="24">
<rect x="0.5" width="24" height="24" fill="#D9D9D9"/>
</mask>
<g mask="url(#mask0_48008_4079)">
<path d="M5.5 19H6.9L15.525 10.375L14.125 8.975L5.5 17.6V19ZM19.8 8.925L15.55 4.725L16.95 3.325C17.3333 2.94167 17.8042 2.75 18.3625 2.75C18.9208 2.75 19.3917 2.94167 19.775 3.325L21.175 4.725C21.5583 5.10833 21.7583 5.57083 21.775 6.1125C21.7917 6.65417 21.6083 7.11667 21.225 7.5L19.8 8.925ZM18.35 10.4L7.75 21H3.5V16.75L14.1 6.15L18.35 10.4Z" fill="#2A3647"/>
</g>
<path d="M33.9091 17.5V5.86364H40.9318V7.11364H35.3182V11.0455H40.5682V12.2955H35.3182V16.25H41.0227V17.5H33.9091ZM46.5852 17.6818C45.858 17.6818 45.2159 17.4981 44.6591 17.1307C44.1023 16.7595 43.6667 16.2367 43.3523 15.5625C43.0379 14.8845 42.8807 14.0833 42.8807 13.1591C42.8807 12.2424 43.0379 11.447 43.3523 10.7727C43.6667 10.0985 44.1042 9.57765 44.6648 9.21023C45.2254 8.8428 45.8731 8.65909 46.608 8.65909C47.1761 8.65909 47.625 8.75379 47.9545 8.94318C48.2879 9.12879 48.5417 9.34091 48.7159 9.57955C48.8939 9.81439 49.0322 10.0076 49.1307 10.1591H49.2443V5.86364H50.5852V17.5H49.2898V16.1591H49.1307C49.0322 16.3182 48.892 16.5189 48.7102 16.7614C48.5284 17 48.2689 17.214 47.9318 17.4034C47.5947 17.589 47.1458 17.6818 46.5852 17.6818ZM46.767 16.4773C47.3049 16.4773 47.7595 16.3371 48.1307 16.0568C48.5019 15.7727 48.7841 15.3807 48.9773 14.8807C49.1705 14.3769 49.267 13.7955 49.267 13.1364C49.267 12.4848 49.1723 11.9148 48.983 11.4261C48.7936 10.9337 48.5133 10.5511 48.142 10.2784C47.7708 10.0019 47.3125 9.86364 46.767 9.86364C46.1989 9.86364 45.7254 10.0095 45.3466 10.3011C44.9716 10.589 44.6894 10.9811 44.5 11.4773C44.3144 11.9697 44.2216 12.5227 44.2216 13.1364C44.2216 13.7576 44.3163 14.322 44.5057 14.8295C44.6989 15.3333 44.983 15.7348 45.358 16.0341C45.7367 16.3295 46.2064 16.4773 46.767 16.4773ZM53.2273 17.5V8.77273H54.5682V17.5H53.2273ZM53.9091 7.31818C53.6477 7.31818 53.4223 7.22917 53.233 7.05114C53.0473 6.87311 52.9545 6.65909 52.9545 6.40909C52.9545 6.15909 53.0473 5.94508 53.233 5.76705C53.4223 5.58902 53.6477 5.5 53.9091 5.5C54.1705 5.5 54.3939 5.58902 54.5795 5.76705C54.7689 5.94508 54.8636 6.15909 54.8636 6.40909C54.8636 6.65909 54.7689 6.87311 54.5795 7.05114C54.3939 7.22917 54.1705 7.31818 53.9091 7.31818ZM60.8196 8.77273V9.90909H56.2969V8.77273H60.8196ZM57.6151 6.68182H58.956V15C58.956 15.3788 59.0109 15.6629 59.1207 15.8523C59.2344 16.0379 59.3783 16.1629 59.5526 16.2273C59.7306 16.2879 59.9181 16.3182 60.1151 16.3182C60.2628 16.3182 60.384 16.3106 60.4787 16.2955C60.5734 16.2765 60.6491 16.2614 60.706 16.25L60.9787 17.4545C60.8878 17.4886 60.7609 17.5227 60.598 17.5568C60.4351 17.5947 60.2287 17.6136 59.9787 17.6136C59.5999 17.6136 59.2287 17.5322 58.8651 17.3693C58.5052 17.2064 58.206 16.9583 57.9673 16.625C57.7325 16.2917 57.6151 15.8712 57.6151 15.3636V6.68182Z" fill="#2A3647"/>
</svg>
