<svg width="82" height="24" viewBox="0 0 82 24" fill="none" xmlns="http://www.w3.org/2000/svg">
<mask id="mask0_71348_10259" style="mask-type:alpha" maskUnits="userSpaceOnUse" x="0" y="0" width="25" height="24">
<rect x="0.5" width="24" height="24" fill="#D9D9D9"/>
</mask>
<g mask="url(#mask0_71348_10259)">
<path d="M7.5 21C6.95 21 6.47917 20.8042 6.0875 20.4125C5.69583 20.0208 5.5 19.55 5.5 19V6C5.21667 6 4.97917 5.90417 4.7875 5.7125C4.59583 5.52083 4.5 5.28333 4.5 5C4.5 4.71667 4.59583 4.47917 4.7875 4.2875C4.97917 4.09583 5.21667 4 5.5 4H9.5C9.5 3.71667 9.59583 3.47917 9.7875 3.2875C9.97917 3.09583 10.2167 3 10.5 3H14.5C14.7833 3 15.0208 3.09583 15.2125 3.2875C15.4042 3.47917 15.5 3.71667 15.5 4H19.5C19.7833 4 20.0208 4.09583 20.2125 4.2875C20.4042 4.47917 20.5 4.71667 20.5 5C20.5 5.28333 20.4042 5.52083 20.2125 5.7125C20.0208 5.90417 19.7833 6 19.5 6V19C19.5 19.55 19.3042 20.0208 18.9125 20.4125C18.5208 20.8042 18.05 21 17.5 21H7.5ZM7.5 6V19H17.5V6H7.5ZM9.5 16C9.5 16.2833 9.59583 16.5208 9.7875 16.7125C9.97917 16.9042 10.2167 17 10.5 17C10.7833 17 11.0208 16.9042 11.2125 16.7125C11.4042 16.5208 11.5 16.2833 11.5 16V9C11.5 8.71667 11.4042 8.47917 11.2125 8.2875C11.0208 8.09583 10.7833 8 10.5 8C10.2167 8 9.97917 8.09583 9.7875 8.2875C9.59583 8.47917 9.5 8.71667 9.5 9V16ZM13.5 16C13.5 16.2833 13.5958 16.5208 13.7875 16.7125C13.9792 16.9042 14.2167 17 14.5 17C14.7833 17 15.0208 16.9042 15.2125 16.7125C15.4042 16.5208 15.5 16.2833 15.5 16V9C15.5 8.71667 15.4042 8.47917 15.2125 8.2875C15.0208 8.09583 14.7833 8 14.5 8C14.2167 8 13.9792 8.09583 13.7875 8.2875C13.5958 8.47917 13.5 8.71667 13.5 9V16Z" fill="#2A3647"/>
</g>
<path d="M37.5 17.5H33.9091V5.86364H37.6591C38.7879 5.86364 39.7538 6.09659 40.5568 6.5625C41.3598 7.02462 41.9754 7.68939 42.4034 8.55682C42.8314 9.42045 43.0455 10.4545 43.0455 11.6591C43.0455 12.8712 42.8295 13.9148 42.3977 14.7898C41.9659 15.661 41.3371 16.3314 40.5114 16.8011C39.6856 17.267 38.6818 17.5 37.5 17.5ZM35.3182 16.25H37.4091C38.3712 16.25 39.1686 16.0644 39.8011 15.6932C40.4337 15.322 40.9053 14.7936 41.2159 14.108C41.5265 13.4223 41.6818 12.6061 41.6818 11.6591C41.6818 10.7197 41.5284 9.91098 41.2216 9.23295C40.9148 8.55114 40.4564 8.02841 39.8466 7.66477C39.2367 7.29735 38.4773 7.11364 37.5682 7.11364H35.3182V16.25ZM48.8864 17.6818C48.0455 17.6818 47.3201 17.4962 46.7102 17.125C46.1042 16.75 45.6364 16.2273 45.3068 15.5568C44.9811 14.8826 44.8182 14.0985 44.8182 13.2045C44.8182 12.3106 44.9811 11.5227 45.3068 10.8409C45.6364 10.1553 46.0947 9.62121 46.6818 9.23864C47.2727 8.85227 47.9621 8.65909 48.75 8.65909C49.2045 8.65909 49.6534 8.73485 50.0966 8.88636C50.5398 9.03788 50.9432 9.28409 51.3068 9.625C51.6705 9.96212 51.9602 10.4091 52.1761 10.9659C52.392 11.5227 52.5 12.2083 52.5 13.0227V13.5909H45.7727V12.4318H51.1364C51.1364 11.9394 51.0379 11.5 50.8409 11.1136C50.6477 10.7273 50.3712 10.4223 50.0114 10.1989C49.6553 9.97538 49.2348 9.86364 48.75 9.86364C48.2159 9.86364 47.7538 9.99621 47.3636 10.2614C46.9773 10.5227 46.6799 10.8636 46.4716 11.2841C46.2633 11.7045 46.1591 12.1553 46.1591 12.6364V13.4091C46.1591 14.0682 46.2727 14.6269 46.5 15.0852C46.7311 15.5398 47.0511 15.8864 47.4602 16.125C47.8693 16.3598 48.3447 16.4773 48.8864 16.4773C49.2386 16.4773 49.5568 16.428 49.8409 16.3295C50.1288 16.2273 50.3769 16.0758 50.5852 15.875C50.7936 15.6705 50.9545 15.4167 51.0682 15.1136L52.3636 15.4773C52.2273 15.9167 51.9981 16.303 51.6761 16.6364C51.3542 16.9659 50.9564 17.2235 50.483 17.4091C50.0095 17.5909 49.4773 17.6818 48.8864 17.6818ZM55.8807 5.86364V17.5H54.5398V5.86364H55.8807ZM61.9957 17.6818C61.1548 17.6818 60.4295 17.4962 59.8196 17.125C59.2135 16.75 58.7457 16.2273 58.4162 15.5568C58.0904 14.8826 57.9276 14.0985 57.9276 13.2045C57.9276 12.3106 58.0904 11.5227 58.4162 10.8409C58.7457 10.1553 59.2041 9.62121 59.7912 9.23864C60.3821 8.85227 61.0715 8.65909 61.8594 8.65909C62.3139 8.65909 62.7628 8.73485 63.206 8.88636C63.6491 9.03788 64.0526 9.28409 64.4162 9.625C64.7798 9.96212 65.0696 10.4091 65.2855 10.9659C65.5014 11.5227 65.6094 12.2083 65.6094 13.0227V13.5909H58.8821V12.4318H64.2457C64.2457 11.9394 64.1473 11.5 63.9503 11.1136C63.7571 10.7273 63.4806 10.4223 63.1207 10.1989C62.7647 9.97538 62.3442 9.86364 61.8594 9.86364C61.3253 9.86364 60.8632 9.99621 60.473 10.2614C60.0866 10.5227 59.7893 10.8636 59.581 11.2841C59.3726 11.7045 59.2685 12.1553 59.2685 12.6364V13.4091C59.2685 14.0682 59.3821 14.6269 59.6094 15.0852C59.8404 15.5398 60.1605 15.8864 60.5696 16.125C60.9787 16.3598 61.4541 16.4773 61.9957 16.4773C62.348 16.4773 62.6662 16.428 62.9503 16.3295C63.2382 16.2273 63.4863 16.0758 63.6946 15.875C63.9029 15.6705 64.0639 15.4167 64.1776 15.1136L65.473 15.4773C65.3366 15.9167 65.1075 16.303 64.7855 16.6364C64.4635 16.9659 64.0658 17.2235 63.5923 17.4091C63.1188 17.5909 62.5866 17.6818 61.9957 17.6818ZM71.4446 8.77273V9.90909H66.9219V8.77273H71.4446ZM68.2401 6.68182H69.581V15C69.581 15.3788 69.6359 15.6629 69.7457 15.8523C69.8594 16.0379 70.0033 16.1629 70.1776 16.2273C70.3556 16.2879 70.5431 16.3182 70.7401 16.3182C70.8878 16.3182 71.009 16.3106 71.1037 16.2955C71.1984 16.2765 71.2741 16.2614 71.331 16.25L71.6037 17.4545C71.5128 17.4886 71.3859 17.5227 71.223 17.5568C71.0601 17.5947 70.8537 17.6136 70.6037 17.6136C70.2249 17.6136 69.8537 17.5322 69.4901 17.3693C69.1302 17.2064 68.831 16.9583 68.5923 16.625C68.3575 16.2917 68.2401 15.8712 68.2401 15.3636V6.68182ZM77.027 17.6818C76.1861 17.6818 75.4607 17.4962 74.8509 17.125C74.2448 16.75 73.777 16.2273 73.4474 15.5568C73.1217 14.8826 72.9588 14.0985 72.9588 13.2045C72.9588 12.3106 73.1217 11.5227 73.4474 10.8409C73.777 10.1553 74.2353 9.62121 74.8224 9.23864C75.4134 8.85227 76.1027 8.65909 76.8906 8.65909C77.3452 8.65909 77.794 8.73485 78.2372 8.88636C78.6804 9.03788 79.0838 9.28409 79.4474 9.625C79.8111 9.96212 80.1009 10.4091 80.3168 10.9659C80.5327 11.5227 80.6406 12.2083 80.6406 13.0227V13.5909H73.9134V12.4318H79.277C79.277 11.9394 79.1785 11.5 78.9815 11.1136C78.7884 10.7273 78.5118 10.4223 78.152 10.1989C77.7959 9.97538 77.3755 9.86364 76.8906 9.86364C76.3565 9.86364 75.8944 9.99621 75.5043 10.2614C75.1179 10.5227 74.8205 10.8636 74.6122 11.2841C74.4039 11.7045 74.2997 12.1553 74.2997 12.6364V13.4091C74.2997 14.0682 74.4134 14.6269 74.6406 15.0852C74.8717 15.5398 75.1918 15.8864 75.6009 16.125C76.0099 16.3598 76.4853 16.4773 77.027 16.4773C77.3793 16.4773 77.6974 16.428 77.9815 16.3295C78.2694 16.2273 78.5175 16.0758 78.7259 15.875C78.9342 15.6705 79.0952 15.4167 79.2088 15.1136L80.5043 15.4773C80.3679 15.9167 80.1387 16.303 79.8168 16.6364C79.4948 16.9659 79.0971 17.2235 78.6236 17.4091C78.1501 17.5909 77.6179 17.6818 77.027 17.6818Z" fill="#2A3647"/>
</svg>
