<svg width="25" height="25" viewBox="0 0 25 25" fill="none" xmlns="http://www.w3.org/2000/svg">
<mask id="mask0_162507_2235" style="mask-type:alpha" maskUnits="userSpaceOnUse" x="0" y="0" width="25" height="25">
<rect x="0.682129" y="0.396729" width="24" height="24" fill="#D9D9D9"/>
</mask>
<g mask="url(#mask0_162507_2235)">
<path d="M7.68213 21.3967C7.13213 21.3967 6.6613 21.2009 6.26963 20.8092C5.87796 20.4176 5.68213 19.9467 5.68213 19.3967V6.39673C5.3988 6.39673 5.1613 6.3009 4.96963 6.10923C4.77796 5.91756 4.68213 5.68006 4.68213 5.39673C4.68213 5.1134 4.77796 4.8759 4.96963 4.68423C5.1613 4.49256 5.3988 4.39673 5.68213 4.39673H9.68213C9.68213 4.1134 9.77796 3.8759 9.96963 3.68423C10.1613 3.49256 10.3988 3.39673 10.6821 3.39673H14.6821C14.9655 3.39673 15.203 3.49256 15.3946 3.68423C15.5863 3.8759 15.6821 4.1134 15.6821 4.39673H19.6821C19.9655 4.39673 20.203 4.49256 20.3946 4.68423C20.5863 4.8759 20.6821 5.1134 20.6821 5.39673C20.6821 5.68006 20.5863 5.91756 20.3946 6.10923C20.203 6.3009 19.9655 6.39673 19.6821 6.39673V19.3967C19.6821 19.9467 19.4863 20.4176 19.0946 20.8092C18.703 21.2009 18.2321 21.3967 17.6821 21.3967H7.68213ZM7.68213 6.39673V19.3967H17.6821V6.39673H7.68213ZM9.68213 16.3967C9.68213 16.6801 9.77796 16.9176 9.96963 17.1092C10.1613 17.3009 10.3988 17.3967 10.6821 17.3967C10.9655 17.3967 11.203 17.3009 11.3946 17.1092C11.5863 16.9176 11.6821 16.6801 11.6821 16.3967V9.39673C11.6821 9.1134 11.5863 8.8759 11.3946 8.68423C11.203 8.49256 10.9655 8.39673 10.6821 8.39673C10.3988 8.39673 10.1613 8.49256 9.96963 8.68423C9.77796 8.8759 9.68213 9.1134 9.68213 9.39673V16.3967ZM13.6821 16.3967C13.6821 16.6801 13.778 16.9176 13.9696 17.1092C14.1613 17.3009 14.3988 17.3967 14.6821 17.3967C14.9655 17.3967 15.203 17.3009 15.3946 17.1092C15.5863 16.9176 15.6821 16.6801 15.6821 16.3967V9.39673C15.6821 9.1134 15.5863 8.8759 15.3946 8.68423C15.203 8.49256 14.9655 8.39673 14.6821 8.39673C14.3988 8.39673 14.1613 8.49256 13.9696 8.68423C13.778 8.8759 13.6821 9.1134 13.6821 9.39673V16.3967Z" fill="#2A3647"/>
</g>
</svg>
