<svg width="25" height="25" viewBox="0 0 25 25" fill="none" xmlns="http://www.w3.org/2000/svg">
<mask id="mask0_162507_2239" style="mask-type:alpha" maskUnits="userSpaceOnUse" x="0" y="0" width="25" height="25">
<rect x="0.682129" y="0.396729" width="24" height="24" fill="#D9D9D9"/>
</mask>
<g mask="url(#mask0_162507_2239)">
<path d="M5.68213 19.3967H7.08213L15.7071 10.7717L14.3071 9.37173L5.68213 17.9967V19.3967ZM19.9821 9.32173L15.7321 5.12173L17.1321 3.72173C17.5155 3.3384 17.9863 3.14673 18.5446 3.14673C19.103 3.14673 19.5738 3.3384 19.9571 3.72173L21.3571 5.12173C21.7405 5.50506 21.9405 5.96756 21.9571 6.50923C21.9738 7.0509 21.7905 7.5134 21.4071 7.89673L19.9821 9.32173ZM18.5321 10.7967L7.93213 21.3967H3.68213V17.1467L14.2821 6.54673L18.5321 10.7967Z" fill="#2A3647"/>
</g>
</svg>
