<svg width="21" height="15" viewBox="0 0 21 15" fill="none" xmlns="http://www.w3.org/2000/svg">
<path d="M10.333 9.00614C10.0984 9.00654 9.86988 8.9317 9.68103 8.79262L0.777921 2.22288C0.662083 2.13733 0.564243 2.02981 0.489988 1.90647C0.415732 1.78313 0.366516 1.64638 0.345148 1.50404C0.301994 1.21655 0.374893 0.923717 0.547809 0.689945C0.720726 0.456173 0.979494 0.300615 1.26719 0.257493C1.55488 0.21437 1.84794 0.287216 2.08188 0.460004L10.333 6.54248L18.5841 0.460004C18.7 0.374448 18.8315 0.312529 18.9713 0.277782C19.1111 0.243035 19.2564 0.236141 19.3988 0.257493C19.5413 0.278844 19.6781 0.328025 19.8016 0.402225C19.925 0.476425 20.0326 0.574193 20.1182 0.689945C20.2038 0.805697 20.2658 0.937168 20.3006 1.07685C20.3353 1.21653 20.3422 1.36169 20.3209 1.50404C20.2995 1.64638 20.2503 1.78313 20.176 1.90647C20.1018 2.02981 20.0039 2.13733 19.8881 2.22288L10.985 8.79262C10.7961 8.9317 10.5676 9.00654 10.333 9.00614Z" fill="#7AE229"/>
<path d="M10.333 14.7547C10.0984 14.7551 9.86988 14.6802 9.68103 14.5412L0.777921 7.97142C0.543975 7.79863 0.388302 7.54005 0.345148 7.25257C0.301994 6.96509 0.374893 6.67225 0.54781 6.43848C0.720726 6.20471 0.979494 6.04915 1.26719 6.00603C1.55488 5.96291 1.84794 6.03575 2.08188 6.20854L10.333 12.291L18.5841 6.20854C18.8181 6.03575 19.1111 5.96291 19.3988 6.00603C19.6865 6.04915 19.9453 6.20471 20.1182 6.43848C20.2911 6.67225 20.364 6.96509 20.3209 7.25257C20.2777 7.54005 20.122 7.79863 19.8881 7.97142L10.985 14.5412C10.7961 14.6802 10.5676 14.7551 10.333 14.7547Z" fill="#7AE229"/>
</svg>
