<svg width="21" height="9" viewBox="0 0 21 9" fill="none" xmlns="http://www.w3.org/2000/svg">
<g clip-path="url(#clip0_371_3706)">
<path d="M19.4041 8.22552H1.59589C1.30524 8.22552 1.0265 8.10922 0.820979 7.90221C0.61546 7.6952 0.5 7.41443 0.5 7.12167C0.5 6.82891 0.61546 6.54814 0.820979 6.34113C1.0265 6.13412 1.30524 6.01782 1.59589 6.01782H19.4041C19.6948 6.01782 19.9735 6.13412 20.179 6.34113C20.3845 6.54814 20.5 6.82891 20.5 7.12167C20.5 7.41443 20.3845 7.6952 20.179 7.90221C19.9735 8.10922 19.6948 8.22552 19.4041 8.22552Z" fill="#FFA800"/>
<path d="M19.4041 2.98223H1.59589C1.30524 2.98223 1.0265 2.86594 0.820979 2.65892C0.61546 2.45191 0.5 2.17114 0.5 1.87839C0.5 1.58563 0.61546 1.30486 0.820979 1.09785C1.0265 0.890834 1.30524 0.774536 1.59589 0.774536L19.4041 0.774536C19.6948 0.774536 19.9735 0.890834 20.179 1.09785C20.3845 1.30486 20.5 1.58563 20.5 1.87839C20.5 2.17114 20.3845 2.45191 20.179 2.65892C19.9735 2.86594 19.6948 2.98223 19.4041 2.98223Z" fill="#FFA800"/>
</g>
<defs>
<clipPath id="clip0_371_3706">
<rect width="20" height="7.45098" fill="white" transform="translate(0.5 0.774536)"/>
</clipPath>
</defs>
</svg>
