<svg width="21" height="15" viewBox="0 0 21 15" fill="none" xmlns="http://www.w3.org/2000/svg">
<g clip-path="url(#clip0_371_3699)">
<path d="M19.5708 14.755C19.3361 14.7554 19.1076 14.6805 18.9187 14.5414L10.6666 8.45824L2.4146 14.5414C2.29874 14.627 2.16716 14.6889 2.02736 14.7237C1.88756 14.7584 1.74228 14.7653 1.59981 14.7439C1.45734 14.7226 1.32048 14.6734 1.19703 14.5992C1.07359 14.525 0.965978 14.4272 0.880349 14.3114C0.79472 14.1957 0.732748 14.0642 0.697971 13.9245C0.663194 13.7848 0.656294 13.6396 0.677664 13.4973C0.720823 13.2097 0.876514 12.9511 1.11049 12.7783L10.0146 6.20786C10.2033 6.06826 10.4319 5.99292 10.6666 5.99292C10.9014 5.99292 11.13 6.06826 11.3187 6.20786L20.2228 12.7783C20.4087 12.9153 20.5466 13.1074 20.6168 13.3272C20.6869 13.5471 20.6858 13.7835 20.6135 14.0027C20.5411 14.2219 20.4014 14.4126 20.2141 14.5477C20.0269 14.6828 19.8017 14.7554 19.5708 14.755Z" fill="#FF3D00"/>
<path d="M19.5708 9.00581C19.3361 9.00621 19.1076 8.93136 18.9187 8.79226L10.6667 2.7091L2.4146 8.79226C2.18063 8.96507 1.88754 9.03793 1.59981 8.9948C1.31209 8.95167 1.05329 8.7961 0.880353 8.5623C0.707418 8.3285 0.63451 8.03563 0.677669 7.74811C0.720828 7.4606 0.876518 7.20199 1.11049 7.02919L10.0146 0.45871C10.2033 0.319119 10.4319 0.243774 10.6667 0.243774C10.9014 0.243774 11.13 0.319119 11.3187 0.45871L20.2228 7.02919C20.4087 7.1661 20.5466 7.35822 20.6168 7.5781C20.6869 7.79797 20.6858 8.03438 20.6135 8.25356C20.5412 8.47274 20.4014 8.6635 20.2141 8.79859C20.0269 8.93368 19.8017 9.0062 19.5708 9.00581Z" fill="#FF3D00"/>
</g>
<defs>
<clipPath id="clip0_371_3699">
<rect width="20" height="14.5098" fill="white" transform="translate(0.666504 0.245117)"/>
</clipPath>
</defs>
</svg>
