<svg width="20" height="20" viewBox="0 0 20 20" fill="none" xmlns="http://www.w3.org/2000/svg">
<g clip-path="url(#clip0_162512_8664)">
<path d="M19.5821 0.396729V2.08673C19.5838 2.71469 19.4609 3.33675 19.2206 3.91692C18.9803 4.49709 18.6273 5.02385 18.1821 5.46673L5.75213 17.8967C5.30925 18.3419 4.78249 18.6949 4.20232 18.9352C3.62215 19.1755 3.00009 19.2984 2.37213 19.2967H0.682129L19.5821 0.396729Z" fill="#D1D1D1"/>
<path d="M19.5822 6.70673V8.39673C19.5827 9.02453 19.4594 9.64627 19.2191 10.2263C18.9789 10.8063 18.6265 11.3332 18.1822 11.7767L12.0622 17.8967C11.6186 18.341 11.0918 18.6934 10.5117 18.9337C9.93173 19.1739 9.30999 19.2973 8.68219 19.2967H6.99219L19.5822 6.70673Z" fill="#D1D1D1"/>
<path d="M19.5823 12.8267V14.5167C19.5829 15.1445 19.4595 15.7663 19.2192 16.3463C18.979 16.9263 18.6266 17.4532 18.1823 17.8967C17.7388 18.341 17.2119 18.6934 16.6319 18.9337C16.0518 19.1739 15.4301 19.2973 14.8023 19.2967H13.1123L19.5823 12.8267Z" fill="#D1D1D1"/>
</g>
<defs>
<clipPath id="clip0_162512_8664">
<rect width="18.9" height="18.9" fill="white" transform="translate(0.682129 0.396729)"/>
</clipPath>
</defs>
</svg>
